# xmcd CD database file
#
# Track frame offsets:
#	182
#	19890
#	35682
#	50242
#	65835
#	84005
#	104690
#	131315
#	149582
#	170020
#	189195
#
# Disc length: 2710 seconds
#
# Revision: 3
# Processed by: cddbd v1.5.2PL0 Copyright (c) Steve Scherf et al.
# Submitted via: CDex 1.51
#
DISCID=9f0a940b
DTITLE=Jeff Lang - Native Dog Creek
DYEAR=1996
DGENRE=Blues
TTITLE0=Native Dog Creek
TTITLE1=Wind Changing
TTITLE2=In A Town Like This
TTITLE3=Never Loved The Man
TTITLE4=Killer
TTITLE5=I Still See You
TTITLE6=Nothing To Be Ashamed Of
TTITLE7=Freddy
TTITLE8=Burn That Bridge
TTITLE9=Heaven In A Cup
TTITLE10=No Trouble No More
EXTD=YEAR: 1996
EXTT0=
EXTT1=
EXTT2=
EXTT3=
EXTT4=
EXTT5=
EXTT6=
EXTT7=
EXTT8=
EXTT9=
EXTT10=
PLAYORDER=
